<mxfile host="app.diagrams.net" modified="2024-03-04T03:37:02.503Z" agent="Mozilla/5.0 (X11; Linux x86_64; rv:123.0) Gecko/20100101 Firefox/123.0" etag="gHaytzahw4xNhlq_LV8p" version="23.1.7" type="github">
  <diagram name="Page-1" id="KSFAkFjSmZ84K4yEGS5b">
    <mxGraphModel dx="1434" dy="709" grid="1" gridSize="10" guides="1" tooltips="1" connect="1" arrows="1" fold="1" page="1" pageScale="1" pageWidth="1920" pageHeight="1200" math="0" shadow="0">
      <root>
        <mxCell id="0" />
        <mxCell id="1" parent="0" />
        <mxCell id="0A8v8lfb1dFI1_24fSwi-43" value="" style="rounded=1;whiteSpace=wrap;html=1;fillColor=#ffe6cc;strokeColor=#d79b00;" vertex="1" parent="1">
          <mxGeometry x="280" y="216.25" width="1140" height="640" as="geometry" />
        </mxCell>
        <mxCell id="0A8v8lfb1dFI1_24fSwi-29" value="" style="rounded=1;whiteSpace=wrap;html=1;fillColor=#dae8fc;strokeColor=#6c8ebf;" vertex="1" parent="1">
          <mxGeometry x="510" y="442.5" width="880" height="187.5" as="geometry" />
        </mxCell>
        <mxCell id="0A8v8lfb1dFI1_24fSwi-1" value="" style="rounded=1;whiteSpace=wrap;html=1;fillColor=#dae8fc;strokeColor=#6c8ebf;" vertex="1" parent="1">
          <mxGeometry x="510" y="240" width="880" height="195" as="geometry" />
        </mxCell>
        <mxCell id="0A8v8lfb1dFI1_24fSwi-3" value="" style="rounded=1;whiteSpace=wrap;html=1;fillColor=#d5e8d4;strokeColor=#82b366;" vertex="1" parent="1">
          <mxGeometry x="650" y="340" width="680" height="80" as="geometry" />
        </mxCell>
        <mxCell id="0A8v8lfb1dFI1_24fSwi-2" value="" style="shape=step;perimeter=stepPerimeter;whiteSpace=wrap;html=1;fixedSize=1;direction=west;fillColor=#ffe6cc;strokeColor=#d79b00;" vertex="1" parent="1">
          <mxGeometry x="700" y="355" width="100" height="50" as="geometry" />
        </mxCell>
        <mxCell id="0A8v8lfb1dFI1_24fSwi-4" value="" style="shape=step;perimeter=stepPerimeter;whiteSpace=wrap;html=1;fixedSize=1;direction=west;fillColor=#ffe6cc;strokeColor=#d79b00;" vertex="1" parent="1">
          <mxGeometry x="810" y="355" width="100" height="50" as="geometry" />
        </mxCell>
        <mxCell id="0A8v8lfb1dFI1_24fSwi-5" value="" style="shape=step;perimeter=stepPerimeter;whiteSpace=wrap;html=1;fixedSize=1;direction=west;fillColor=#ffe6cc;strokeColor=#d79b00;" vertex="1" parent="1">
          <mxGeometry x="930" y="355" width="100" height="50" as="geometry" />
        </mxCell>
        <mxCell id="0A8v8lfb1dFI1_24fSwi-6" value="" style="shape=step;perimeter=stepPerimeter;whiteSpace=wrap;html=1;fixedSize=1;direction=west;fillColor=#ffe6cc;strokeColor=#d79b00;" vertex="1" parent="1">
          <mxGeometry x="1050" y="355" width="100" height="50" as="geometry" />
        </mxCell>
        <mxCell id="0A8v8lfb1dFI1_24fSwi-7" value="" style="shape=step;perimeter=stepPerimeter;whiteSpace=wrap;html=1;fixedSize=1;direction=west;fillColor=#f8cecc;strokeColor=#b85450;" vertex="1" parent="1">
          <mxGeometry x="1170" y="355" width="100" height="50" as="geometry" />
        </mxCell>
        <mxCell id="0A8v8lfb1dFI1_24fSwi-8" value="" style="shape=step;perimeter=stepPerimeter;whiteSpace=wrap;html=1;fixedSize=1;direction=west;fillColor=#f8cecc;strokeColor=#b85450;" vertex="1" parent="1">
          <mxGeometry x="530" y="355" width="100" height="50" as="geometry" />
        </mxCell>
        <mxCell id="0A8v8lfb1dFI1_24fSwi-10" value="" style="rounded=1;whiteSpace=wrap;html=1;fillColor=#fff2cc;strokeColor=#d6b656;" vertex="1" parent="1">
          <mxGeometry x="650" y="500" width="680" height="80" as="geometry" />
        </mxCell>
        <mxCell id="0A8v8lfb1dFI1_24fSwi-11" value="" style="shape=step;perimeter=stepPerimeter;whiteSpace=wrap;html=1;fixedSize=1;direction=west;fillColor=#e1d5e7;strokeColor=#9673a6;" vertex="1" parent="1">
          <mxGeometry x="700" y="515" width="100" height="50" as="geometry" />
        </mxCell>
        <mxCell id="0A8v8lfb1dFI1_24fSwi-12" value="" style="shape=step;perimeter=stepPerimeter;whiteSpace=wrap;html=1;fixedSize=1;direction=west;fillColor=#e1d5e7;strokeColor=#9673a6;" vertex="1" parent="1">
          <mxGeometry x="810" y="515" width="100" height="50" as="geometry" />
        </mxCell>
        <mxCell id="0A8v8lfb1dFI1_24fSwi-13" value="" style="shape=step;perimeter=stepPerimeter;whiteSpace=wrap;html=1;fixedSize=1;direction=west;fillColor=#e1d5e7;strokeColor=#9673a6;" vertex="1" parent="1">
          <mxGeometry x="930" y="515" width="100" height="50" as="geometry" />
        </mxCell>
        <mxCell id="0A8v8lfb1dFI1_24fSwi-14" value="" style="shape=step;perimeter=stepPerimeter;whiteSpace=wrap;html=1;fixedSize=1;direction=west;fillColor=#e1d5e7;strokeColor=#9673a6;" vertex="1" parent="1">
          <mxGeometry x="1050" y="515" width="100" height="50" as="geometry" />
        </mxCell>
        <mxCell id="0A8v8lfb1dFI1_24fSwi-15" value="" style="shape=step;perimeter=stepPerimeter;whiteSpace=wrap;html=1;fixedSize=1;direction=west;fillColor=#e1d5e7;strokeColor=#9673a6;" vertex="1" parent="1">
          <mxGeometry x="1170" y="515" width="100" height="50" as="geometry" />
        </mxCell>
        <mxCell id="0A8v8lfb1dFI1_24fSwi-22" value="&lt;font style=&quot;font-size: 20px;&quot;&gt;&lt;b&gt;Sync Queue&lt;br&gt;&lt;/b&gt;&lt;/font&gt;" style="text;strokeColor=none;align=center;fillColor=none;html=1;verticalAlign=middle;whiteSpace=wrap;rounded=0;" vertex="1" parent="1">
          <mxGeometry x="530" y="250" width="140" height="30" as="geometry" />
        </mxCell>
        <mxCell id="0A8v8lfb1dFI1_24fSwi-26" value="" style="edgeStyle=orthogonalEdgeStyle;rounded=0;orthogonalLoop=1;jettySize=auto;html=1;entryX=0.5;entryY=1;entryDx=0;entryDy=0;" edge="1" parent="1" source="0A8v8lfb1dFI1_24fSwi-23" target="0A8v8lfb1dFI1_24fSwi-8">
          <mxGeometry relative="1" as="geometry" />
        </mxCell>
        <mxCell id="0A8v8lfb1dFI1_24fSwi-23" value="&lt;b&gt;Head&lt;br&gt;&lt;/b&gt;" style="text;strokeColor=none;align=center;fillColor=none;html=1;verticalAlign=middle;whiteSpace=wrap;rounded=0;" vertex="1" parent="1">
          <mxGeometry x="510" y="300" width="140" height="30" as="geometry" />
        </mxCell>
        <mxCell id="0A8v8lfb1dFI1_24fSwi-28" value="" style="edgeStyle=orthogonalEdgeStyle;rounded=0;orthogonalLoop=1;jettySize=auto;html=1;" edge="1" parent="1" source="0A8v8lfb1dFI1_24fSwi-27" target="0A8v8lfb1dFI1_24fSwi-7">
          <mxGeometry relative="1" as="geometry" />
        </mxCell>
        <mxCell id="0A8v8lfb1dFI1_24fSwi-27" value="&lt;b&gt;Tail&lt;/b&gt;" style="text;strokeColor=none;align=center;fillColor=none;html=1;verticalAlign=middle;whiteSpace=wrap;rounded=0;" vertex="1" parent="1">
          <mxGeometry x="1150" y="300" width="140" height="30" as="geometry" />
        </mxCell>
        <mxCell id="0A8v8lfb1dFI1_24fSwi-30" value="&lt;font style=&quot;font-size: 20px;&quot;&gt;&lt;b&gt;Condition Object&lt;br&gt;&lt;/b&gt;&lt;/font&gt;" style="text;strokeColor=none;align=center;fillColor=none;html=1;verticalAlign=middle;whiteSpace=wrap;rounded=0;" vertex="1" parent="1">
          <mxGeometry x="530" y="450" width="170" height="30" as="geometry" />
        </mxCell>
        <mxCell id="0A8v8lfb1dFI1_24fSwi-32" value="&lt;font style=&quot;font-size: 20px;&quot;&gt;&lt;b&gt;(Condition Queue)&lt;/b&gt;&lt;/font&gt;" style="text;strokeColor=none;align=center;fillColor=none;html=1;verticalAlign=middle;whiteSpace=wrap;rounded=0;" vertex="1" parent="1">
          <mxGeometry x="515" y="585" width="200" height="30" as="geometry" />
        </mxCell>
        <mxCell id="0A8v8lfb1dFI1_24fSwi-33" value="" style="rounded=1;whiteSpace=wrap;html=1;fillColor=#dae8fc;strokeColor=#6c8ebf;" vertex="1" parent="1">
          <mxGeometry x="510" y="640" width="880" height="187.5" as="geometry" />
        </mxCell>
        <mxCell id="0A8v8lfb1dFI1_24fSwi-34" value="" style="rounded=1;whiteSpace=wrap;html=1;fillColor=#fff2cc;strokeColor=#d6b656;" vertex="1" parent="1">
          <mxGeometry x="650" y="697.5" width="680" height="80" as="geometry" />
        </mxCell>
        <mxCell id="0A8v8lfb1dFI1_24fSwi-35" value="" style="shape=step;perimeter=stepPerimeter;whiteSpace=wrap;html=1;fixedSize=1;direction=west;fillColor=#e1d5e7;strokeColor=#9673a6;" vertex="1" parent="1">
          <mxGeometry x="700" y="712.5" width="100" height="50" as="geometry" />
        </mxCell>
        <mxCell id="0A8v8lfb1dFI1_24fSwi-36" value="" style="shape=step;perimeter=stepPerimeter;whiteSpace=wrap;html=1;fixedSize=1;direction=west;fillColor=#e1d5e7;strokeColor=#9673a6;" vertex="1" parent="1">
          <mxGeometry x="810" y="712.5" width="100" height="50" as="geometry" />
        </mxCell>
        <mxCell id="0A8v8lfb1dFI1_24fSwi-37" value="" style="shape=step;perimeter=stepPerimeter;whiteSpace=wrap;html=1;fixedSize=1;direction=west;fillColor=#e1d5e7;strokeColor=#9673a6;" vertex="1" parent="1">
          <mxGeometry x="930" y="712.5" width="100" height="50" as="geometry" />
        </mxCell>
        <mxCell id="0A8v8lfb1dFI1_24fSwi-38" value="" style="shape=step;perimeter=stepPerimeter;whiteSpace=wrap;html=1;fixedSize=1;direction=west;fillColor=#e1d5e7;strokeColor=#9673a6;" vertex="1" parent="1">
          <mxGeometry x="1050" y="712.5" width="100" height="50" as="geometry" />
        </mxCell>
        <mxCell id="0A8v8lfb1dFI1_24fSwi-39" value="" style="shape=step;perimeter=stepPerimeter;whiteSpace=wrap;html=1;fixedSize=1;direction=west;fillColor=#e1d5e7;strokeColor=#9673a6;" vertex="1" parent="1">
          <mxGeometry x="1170" y="712.5" width="100" height="50" as="geometry" />
        </mxCell>
        <mxCell id="0A8v8lfb1dFI1_24fSwi-40" value="&lt;font style=&quot;font-size: 20px;&quot;&gt;&lt;b&gt;Condition Object&lt;br&gt;&lt;/b&gt;&lt;/font&gt;" style="text;strokeColor=none;align=center;fillColor=none;html=1;verticalAlign=middle;whiteSpace=wrap;rounded=0;" vertex="1" parent="1">
          <mxGeometry x="530" y="647.5" width="170" height="30" as="geometry" />
        </mxCell>
        <mxCell id="0A8v8lfb1dFI1_24fSwi-41" value="&lt;font style=&quot;font-size: 20px;&quot;&gt;&lt;b&gt;(Condition Queue)&lt;/b&gt;&lt;/font&gt;" style="text;strokeColor=none;align=center;fillColor=none;html=1;verticalAlign=middle;whiteSpace=wrap;rounded=0;" vertex="1" parent="1">
          <mxGeometry x="515" y="782.5" width="200" height="30" as="geometry" />
        </mxCell>
        <mxCell id="0A8v8lfb1dFI1_24fSwi-42" value="&lt;b&gt;&lt;font style=&quot;font-size: 20px;&quot;&gt;State&lt;/font&gt;&lt;/b&gt;" style="rounded=1;whiteSpace=wrap;html=1;fillColor=#f8cecc;strokeColor=#b85450;" vertex="1" parent="1">
          <mxGeometry x="310" y="510" width="120" height="60" as="geometry" />
        </mxCell>
        <mxCell id="0A8v8lfb1dFI1_24fSwi-45" value="" style="rounded=1;whiteSpace=wrap;html=1;fillColor=#f8cecc;strokeColor=#b85450;" vertex="1" parent="1">
          <mxGeometry x="310" y="350" width="120" height="60" as="geometry" />
        </mxCell>
        <mxCell id="0A8v8lfb1dFI1_24fSwi-46" value="&lt;b&gt;exclusiveOwner&lt;br&gt;Thread&lt;/b&gt;" style="text;strokeColor=none;align=center;fillColor=none;html=1;verticalAlign=middle;whiteSpace=wrap;rounded=0;" vertex="1" parent="1">
          <mxGeometry x="320" y="365" width="100" height="30" as="geometry" />
        </mxCell>
      </root>
    </mxGraphModel>
  </diagram>
</mxfile>
